# 
# Wavefront OBJ file
# Created with Kaydara FBX
# 
mtllib sponzasimplenavmesh.mtl

g navmesh
v 16.217197 0.093300 7.241999
v 16.217199 0.093300 -7.218500
v 16.217199 0.093300 -7.218500
v 16.217199 0.093300 -7.218500
v 16.217199 0.093300 -7.218500
v 16.217199 0.093300 -7.218500
v 16.217199 0.093300 -7.218500
v 16.217199 0.093300 -7.218500
v 16.217199 0.093300 -7.218500
v 16.217199 0.093300 -7.218500
v 16.217199 0.093300 -7.218500
v 16.217199 0.093300 -7.218500
v 16.217199 0.093300 -7.218500
v 16.217199 0.093300 -7.218500
v 16.217199 0.093300 -7.218500
v 16.218000 4.823300 7.221500
v 11.898064 4.823300 3.386652
v 0.007200 4.823300 3.386652
v 0.007200 4.823300 7.221500
v 16.218000 4.823300 0.001500
v 11.898064 4.823300 0.001500
v -11.883663 4.823300 3.386652
v -16.203600 4.823300 7.221500
v -11.883663 4.823300 0.001500
v -16.203600 4.823300 0.001500
v 11.898064 4.823300 -3.383651
v 16.218000 4.823300 -7.218500
v -16.203600 4.823300 -7.218500
v -11.883663 4.823300 -3.383651
v -16.202801 0.093300 7.242000
v 16.217199 0.093300 -7.218500
v -16.202801 0.093300 -7.218500
v 16.217197 0.093300 -2.045884
v -16.202801 0.093300 -2.045884
v 16.217199 0.093300 -3.303618
v -16.202801 0.093300 -3.303617
v 16.217197 0.093300 2.196700
v -16.202801 0.093300 2.196700
v 16.217197 0.093300 3.203470
v -16.202801 0.093300 3.203471
v 11.623594 0.093300 -7.218500
v 11.623594 0.093300 -3.303618
v 11.623592 0.093300 -2.045884
v 11.623592 0.093300 2.196700
v 11.623592 0.093300 3.203470
v 11.623591 0.093300 7.241999
v 10.512708 0.093300 -7.218500
v 10.512708 0.093300 -3.303618
v 10.512706 0.093300 -2.045884
v 10.512706 0.093300 2.196700
v 10.512706 0.093300 3.203470
v 10.512705 0.093300 7.241999
v 6.995478 0.093300 -7.218501
v 6.995478 0.093300 -3.303618
v 6.995476 0.093300 -2.045884
v 6.995476 0.093300 2.196700
v 6.995476 0.093300 3.203470
v 6.995475 0.093300 7.241999
v 6.210359 0.093300 -7.218501
v 6.210359 0.093300 -3.303618
v 6.210357 0.093300 -2.045884
v 6.210357 0.093300 2.196700
v 6.210357 0.093300 3.203470
v 6.210355 0.093300 7.241999
v 2.594423 0.093300 -7.218501
v 2.594423 0.093300 -3.303618
v 2.594421 0.093300 -2.045884
v 2.594421 0.093300 2.196700
v 2.594421 0.093300 3.203470
v 2.594420 0.093300 7.242000
v 1.815102 0.093300 -7.218501
v 1.815102 0.093300 -3.303618
v 1.815101 0.093300 -2.045884
v 1.815101 0.093300 2.196700
v 1.815101 0.093300 3.203470
v 1.815100 0.093300 7.242000
v -1.800531 0.093300 -7.218501
v -1.800531 0.093300 -3.303618
v -1.800532 0.093300 -2.045884
v -1.800532 0.093300 2.196700
v -1.800532 0.093300 3.203470
v -1.800533 0.093300 7.242000
v -2.573069 0.093300 -7.218501
v -2.573069 0.093300 -3.303618
v -2.573070 0.093300 -2.045884
v -2.573070 0.093300 2.196700
v -2.573070 0.093300 3.203470
v -2.573071 0.093300 7.242000
v -6.195611 0.093300 -7.218501
v -6.195611 0.093300 -3.303618
v -6.195612 0.093300 -2.045884
v -6.195612 0.093300 2.196700
v -6.195612 0.093300 3.203470
v -6.195613 0.093300 7.242000
v -6.981106 0.093300 -7.218501
v -6.981106 0.093300 -3.303617
v -6.981107 0.093300 -2.045884
v -6.981107 0.093300 2.196700
v -6.981107 0.093300 3.203470
v -6.981108 0.093300 7.242000
v -10.516000 0.093300 -7.218500
v -10.516000 0.093300 -3.303617
v -10.516001 0.093300 -2.045884
v -10.516001 0.093300 2.196700
v -10.516001 0.093300 3.203471
v -10.516001 0.093300 7.242000
v -11.612684 0.093300 -7.218500
v -11.612684 0.093300 -3.303617
v -11.612686 0.093300 -2.045884
v -11.612686 0.093300 2.196700
v -11.612686 0.093300 3.203471
v -11.612686 0.093300 7.242000
v -16.202801 0.093300 5.283704
v -11.612686 0.093300 5.283704
v -10.516001 0.093300 5.283704
v -6.981107 0.093300 5.283704
v -6.195613 0.093300 5.283704
v -2.573070 0.093300 5.283704
v -1.800533 0.093300 5.283704
v 1.815100 0.093300 5.283704
v 2.594420 0.093300 5.283704
v 6.210356 0.093300 5.283704
v 6.995475 0.093300 5.283704
v 10.512705 0.093300 5.283703
v 11.623592 0.093300 5.283703
v 16.217197 0.093300 5.283703
v -16.202801 0.093300 0.242920
v -11.612686 0.093300 0.242920
v -10.516001 0.093300 0.242920
v -6.981107 0.093300 0.242920
v -6.195612 0.093300 0.242920
v -2.573070 0.093300 0.242920
v -1.800532 0.093300 0.242920
v 1.815101 0.093300 0.242919
v 2.594421 0.093300 0.242919
v 6.210357 0.093300 0.242919
v 6.995476 0.093300 0.242919
v 10.512706 0.093300 0.242919
v 11.623592 0.093300 0.242919
v 16.217197 0.093300 0.242919
v -16.202801 0.093300 -5.301679
v -11.612684 0.093300 -5.301679
v -10.516000 0.093300 -5.301679
v -6.981106 0.093300 -5.301679
v -6.195611 0.093300 -5.301679
v -2.573069 0.093300 -5.301679
v -1.800531 0.093300 -5.301679
v 1.815102 0.093300 -5.301679
v 2.594423 0.093300 -5.301679
v 6.210359 0.093300 -5.301679
v 6.995478 0.093300 -5.301679
v 10.512708 0.093300 -5.301679
v 11.623594 0.093300 -5.301679
v 16.217199 0.093300 -5.301679
v 13.825302 0.093300 -7.218500
v 13.825302 0.093300 -5.301679
v 13.825302 0.093300 -3.303618
v 13.825300 0.093300 -2.045884
v 13.825300 0.093300 0.242919
v 13.825300 0.093300 2.196700
v 13.825300 0.093300 3.203470
v 13.825300 0.093300 5.283703
v 13.825300 0.093300 7.241999
v -13.911413 0.093300 -7.218500
v -13.911413 0.093300 -5.301679
v -13.911413 0.093300 -3.303617
v -13.911414 0.093300 -2.045884
v -13.911414 0.093300 0.242920
v -13.911414 0.093300 2.196700
v -13.911414 0.093300 3.203471
v -13.911414 0.093300 5.283704
v -13.911414 0.093300 7.242000
v 1.065750 4.823300 -3.383651
v 1.066733 4.823300 -7.218500
vt 0.000192 0.000000
vt 0.222241 0.000000
vt 0.221984 1.000000
vt 0.000000 0.749807
vn 0.000000 0.000000 0.000000
vn 0.000000 0.000000 0.000000
vn 0.000000 0.000000 0.000000
vn 0.000000 0.000000 0.000000
vn 0.000000 0.000000 0.000000
vn 0.000000 0.000000 0.000000
vn 0.000000 0.000000 0.000000
vn 0.000000 0.000000 0.000000
vn 0.000000 0.000000 0.000000
vn 0.000000 0.000000 0.000000
vn 0.000000 0.000000 0.000000
vn 0.000000 0.000000 0.000000
vn 0.000000 0.000000 0.000000
vn 0.000000 0.000000 0.000000
vn 0.000000 0.000000 0.000000
vn 0.000000 0.000000 0.000000
vn 0.000000 0.000000 0.000000
vn 0.000000 0.000000 0.000000
vn 0.000000 0.000000 0.000000
vn 0.000000 0.000000 0.000000
vn 0.000000 0.000000 0.000000
vn 0.000000 0.000000 0.000000
vn 0.000000 0.000000 0.000000
vn 0.000000 0.000000 0.000000
vn 0.000000 0.000000 0.000000
vn 0.000000 0.000000 0.000000
vn 0.000000 0.000000 0.000000
vn 0.000000 0.000000 0.000000
vn 0.000000 0.000000 0.000000
vn 0.000000 0.000000 0.000000
vn 0.000000 0.000000 0.000000
vn 0.000000 0.000000 0.000000
vn 0.000000 0.000000 0.000000
vn 0.000000 0.000000 0.000000
vn 0.000000 0.000000 0.000000
vn 0.000000 0.000000 0.000000
vn 0.000000 1.000000 0.000000
vn 0.000000 1.000000 0.000000
vn 0.000000 1.000000 0.000000
vn 0.000000 1.000000 0.000000
vn 0.000000 1.000000 0.000000
vn 0.000000 1.000000 0.000000
vn 0.000000 1.000000 -0.000000
vn 0.000000 1.000000 -0.000000
vn 0.000000 1.000000 -0.000000
vn 0.000000 1.000000 -0.000000
vn 0.000000 1.000000 -0.000000
vn 0.000000 1.000000 -0.000000
vn 0.000000 1.000000 0.000000
vn 0.000000 1.000000 0.000000
vn 0.000000 1.000000 0.000000
vn 0.000000 1.000000 0.000000
vn 0.000000 1.000000 0.000000
vn 0.000000 1.000000 0.000000
vn 0.000000 1.000000 0.000000
vn 0.000000 1.000000 0.000000
vn 0.000000 1.000000 0.000000
vn 0.000000 1.000000 0.000000
vn 0.000000 1.000000 0.000000
vn 0.000000 1.000000 0.000000
vn 0.000000 1.000000 0.000000
vn 0.000000 1.000000 0.000000
vn 0.000000 1.000000 0.000000
vn 0.000000 1.000000 0.000000
vn 0.000000 1.000000 0.000000
vn 0.000000 1.000000 0.000000
vn 0.000000 1.000000 0.000000
vn 0.000000 1.000000 0.000000
vn 0.000000 1.000000 0.000000
vn 0.000000 1.000000 0.000000
vn 0.000000 1.000000 0.000000
vn 0.000000 1.000000 0.000000
vn 0.000000 1.000000 0.000000
vn 0.000000 1.000000 0.000000
vn 0.000000 1.000000 0.000000
vn 0.000000 1.000000 0.000000
vn 0.000000 1.000000 0.000000
vn 0.000000 1.000000 0.000000
vn 0.000000 1.000000 0.000000
vn 0.000000 1.000000 0.000000
vn 0.000000 1.000000 0.000000
vn 0.000000 1.000000 0.000000
vn 0.000000 1.000000 0.000000
vn 0.000000 1.000000 0.000000
vn -0.000000 1.000000 0.000000
vn -0.000000 1.000000 0.000000
vn -0.000000 1.000000 0.000000
vn -0.000000 1.000000 0.000000
vn -0.000000 1.000000 0.000000
vn -0.000000 1.000000 0.000000
vn -0.000000 1.000000 0.000000
vn -0.000000 1.000000 0.000000
vn -0.000000 1.000000 0.000000
vn -0.000000 1.000000 0.000000
vn -0.000000 1.000000 0.000000
vn -0.000000 1.000000 0.000000
vn -0.000000 1.000000 0.000000
vn -0.000000 1.000000 0.000000
vn -0.000000 1.000000 0.000000
vn -0.000000 1.000000 0.000000
vn -0.000000 1.000000 0.000000
vn -0.000000 1.000000 0.000000
vn 0.000000 1.000000 0.000000
vn 0.000000 1.000000 0.000000
vn 0.000000 1.000000 0.000000
vn 0.000000 1.000000 0.000000
vn 0.000000 1.000000 0.000000
vn 0.000000 1.000000 0.000000
vn 0.000000 1.000000 0.000000
vn 0.000000 1.000000 0.000000
vn 0.000000 1.000000 0.000000
vn 0.000000 1.000000 0.000000
vn 0.000000 1.000000 0.000000
vn 0.000000 1.000000 0.000000
vn 0.000000 1.000000 0.000000
vn 0.000000 1.000000 0.000000
vn 0.000000 1.000000 0.000000
vn 0.000000 1.000000 0.000000
vn 0.000000 1.000000 0.000000
vn 0.000000 1.000000 0.000000
vn 0.000000 1.000000 0.000000
vn 0.000000 1.000000 0.000000
vn 0.000000 1.000000 0.000000
vn 0.000000 1.000000 0.000000
vn 0.000000 1.000000 0.000000
vn 0.000000 1.000000 0.000000
vn 0.000000 1.000000 0.000000
vn 0.000000 1.000000 0.000000
vn 0.000000 1.000000 0.000000
vn 0.000000 1.000000 0.000000
vn 0.000000 1.000000 0.000000
vn 0.000000 1.000000 0.000000
vn 0.000000 1.000000 0.000000
vn 0.000000 1.000000 0.000000
vn 0.000000 1.000000 0.000000
vn 0.000000 1.000000 0.000000
vn 0.000000 1.000000 0.000000
vn 0.000000 1.000000 0.000000
vn 0.000000 1.000000 0.000000
vn 0.000000 1.000000 0.000000
vn 0.000000 1.000000 0.000000
vn 0.000000 1.000000 0.000000
vn 0.000000 1.000000 0.000000
vn 0.000000 1.000000 0.000000
vn 0.000000 1.000000 0.000000
vn 0.000000 1.000000 0.000000
vn 0.000000 1.000000 0.000000
vn 0.000000 1.000000 0.000000
vn 0.000000 1.000000 0.000000
vn 0.000000 1.000000 0.000000
vn 0.000000 1.000000 0.000000
vn 0.000000 1.000000 0.000000
vn 0.000000 1.000000 0.000000
vn 0.000000 1.000000 0.000000
vn 0.000000 1.000000 0.000000
vn 0.000000 1.000000 0.000000
vn 0.000000 1.000000 -0.000000
vn 0.000000 1.000000 -0.000000
vn 0.000000 1.000000 -0.000000
vn 0.000000 1.000000 -0.000000
vn 0.000000 1.000000 -0.000000
vn 0.000000 1.000000 -0.000000
vn 0.000000 1.000000 0.000000
vn 0.000000 1.000000 0.000000
vn 0.000000 1.000000 0.000000
vn 0.000000 1.000000 0.000000
vn 0.000000 1.000000 0.000000
vn 0.000000 1.000000 0.000000
vn 0.000000 1.000000 0.000000
vn 0.000000 1.000000 0.000000
vn 0.000000 1.000000 0.000000
vn 0.000000 1.000000 0.000000
vn 0.000000 1.000000 0.000000
vn 0.000000 1.000000 0.000000
usemtl lambert2
f 2/0/2 3/0/3 4/0/4
f 5/0/5 3/0/3 6/0/6
f 5/0/5 4/0/4 3/0/3
f 5/0/5 7/0/7 4/0/4
f 8/0/8 5/0/5 9/0/9
f 8/0/8 7/0/7 5/0/5
f 10/0/10 7/0/7 8/0/8
f 11/0/11 7/0/7 10/0/10
f 12/0/12 7/0/7 11/0/11
f 13/0/13 7/0/7 12/0/12
f 14/0/14 7/0/7 13/0/13
f 15/0/15 7/0/7 14/0/14
f 16/0/16 20/0/20 17/0/17
f 17/0/17 20/0/20 21/0/21
f 23/0/23 19/0/19 22/0/22
f 22/0/22 19/0/19 18/0/18
f 25/0/25 29/0/29 28/0/28
f 25/0/25 24/0/24 29/0/29
f 126/0/126 161/0/161 162/0/162
f 161/0/161 126/0/126 39/0/39
f 33/0/33 157/0/157 158/0/158
f 157/0/157 33/0/33 35/0/35
f 154/0/154 155/0/155 156/0/156
f 155/0/155 154/0/154 31/0/31
f 140/0/140 158/0/158 159/0/159
f 158/0/158 140/0/140 33/0/33
f 39/0/39 160/0/160 161/0/161
f 160/0/160 39/0/39 37/0/37
f 153/0/153 47/0/47 152/0/152
f 47/0/47 153/0/153 41/0/41
f 139/0/139 49/0/49 138/0/138
f 49/0/49 139/0/139 43/0/43
f 125/0/125 51/0/51 124/0/124
f 51/0/51 125/0/125 45/0/45
f 151/0/151 47/0/47 53/0/53
f 47/0/47 151/0/151 152/0/152
f 49/0/49 54/0/54 55/0/55
f 54/0/54 49/0/49 48/0/48
f 138/0/138 55/0/55 137/0/137
f 55/0/55 138/0/138 49/0/49
f 51/0/51 56/0/56 57/0/57
f 56/0/56 51/0/51 50/0/50
f 124/0/124 57/0/57 123/0/123
f 57/0/57 124/0/124 51/0/51
f 151/0/151 59/0/59 150/0/150
f 59/0/59 151/0/151 53/0/53
f 137/0/137 61/0/61 136/0/136
f 61/0/61 137/0/137 55/0/55
f 123/0/123 63/0/63 122/0/122
f 63/0/63 123/0/123 57/0/57
f 150/0/150 65/0/65 149/0/149
f 65/0/65 150/0/150 59/0/59
f 61/0/61 66/0/66 67/0/67
f 66/0/66 61/0/61 60/0/60
f 136/0/136 67/0/67 135/0/135
f 67/0/67 136/0/136 61/0/61
f 63/0/63 68/0/68 69/0/69
f 68/0/68 63/0/63 62/0/62
f 122/0/122 69/0/69 121/0/121
f 69/0/69 122/0/122 63/0/63
f 149/0/149 71/0/71 148/0/148
f 71/0/71 149/0/149 65/0/65
f 135/0/135 73/0/73 134/0/134
f 73/0/73 135/0/135 67/0/67
f 121/0/121 75/0/75 120/0/120
f 75/0/75 121/0/121 69/0/69
f 148/0/148 77/0/77 147/0/147
f 77/0/77 148/0/148 71/0/71
f 73/0/73 78/0/78 79/0/79
f 78/0/78 73/0/73 72/0/72
f 134/0/134 79/0/79 133/0/133
f 79/0/79 134/0/134 73/0/73
f 75/0/75 80/0/80 81/0/81
f 80/0/80 75/0/75 74/0/74
f 120/0/120 81/0/81 119/0/119
f 81/0/81 120/0/120 75/0/75
f 147/0/147 83/0/83 146/0/146
f 83/0/83 147/0/147 77/0/77
f 133/0/133 85/0/85 132/0/132
f 85/0/85 133/0/133 79/0/79
f 119/0/119 87/0/87 118/0/118
f 87/0/87 119/0/119 81/0/81
f 146/0/146 89/0/89 145/0/145
f 89/0/89 146/0/146 83/0/83
f 85/0/85 90/0/90 91/0/91
f 90/0/90 85/0/85 84/0/84
f 132/0/132 91/0/91 131/0/131
f 91/0/91 132/0/132 85/0/85
f 87/0/87 92/0/92 93/0/93
f 92/0/92 87/0/87 86/0/86
f 118/0/118 93/0/93 117/0/117
f 93/0/93 118/0/118 87/0/87
f 145/0/145 95/0/95 144/0/144
f 95/0/95 145/0/145 89/0/89
f 131/0/131 97/0/97 130/0/130
f 97/0/97 131/0/131 91/0/91
f 117/0/117 99/0/99 116/0/116
f 99/0/99 117/0/117 93/0/93
f 144/0/144 101/0/101 143/0/143
f 101/0/101 144/0/144 95/0/95
f 97/0/97 102/0/102 103/0/103
f 102/0/102 97/0/97 96/0/96
f 130/0/130 103/0/103 129/0/129
f 103/0/103 130/0/130 97/0/97
f 99/0/99 104/0/104 105/0/105
f 104/0/104 99/0/99 98/0/98
f 116/0/116 105/0/105 115/0/115
f 105/0/105 116/0/116 99/0/99
f 143/0/143 107/0/107 142/0/142
f 107/0/107 143/0/143 101/0/101
f 129/0/129 109/0/109 128/0/128
f 109/0/109 129/0/129 103/0/103
f 115/0/115 111/0/111 114/0/114
f 111/0/111 115/0/115 105/0/105
f 142/0/142 164/0/164 165/0/165
f 164/0/164 142/0/142 107/0/107
f 109/0/109 166/0/166 167/0/167
f 166/0/166 109/0/109 108/0/108
f 128/0/128 167/0/167 168/0/168
f 167/0/167 128/0/128 109/0/109
f 111/0/111 169/0/169 170/0/170
f 169/0/169 111/0/111 110/0/110
f 114/0/114 170/0/170 171/0/171
f 170/0/170 114/0/114 111/0/111
f 112/0/112 171/0/171 172/0/172
f 171/0/171 112/0/112 114/0/114
f 106/0/106 115/0/115 112/0/112
f 112/0/112 115/0/115 114/0/114
f 100/0/100 115/0/115 106/0/106
f 115/0/115 100/0/100 116/0/116
f 94/0/94 116/0/116 100/0/100
f 116/0/116 94/0/94 117/0/117
f 88/0/88 117/0/117 94/0/94
f 117/0/117 88/0/88 118/0/118
f 82/0/82 118/0/118 88/0/88
f 118/0/118 82/0/82 119/0/119
f 76/0/76 119/0/119 82/0/82
f 119/0/119 76/0/76 120/0/120
f 70/0/70 120/0/120 76/0/76
f 120/0/120 70/0/70 121/0/121
f 64/0/64 121/0/121 70/0/70
f 121/0/121 64/0/64 122/0/122
f 58/0/58 122/0/122 64/0/64
f 122/0/122 58/0/58 123/0/123
f 52/0/52 123/0/123 58/0/58
f 123/0/123 52/0/52 124/0/124
f 46/0/46 124/0/124 52/0/52
f 124/0/124 46/0/46 125/0/125
f 163/0/163 1/0/1 126/0/126
f 163/0/163 126/0/126 162/0/162
f 110/0/110 168/0/168 169/0/169
f 168/0/168 110/0/110 128/0/128
f 104/0/104 129/0/129 110/0/110
f 110/0/110 129/0/129 128/0/128
f 104/0/104 98/0/98 130/0/130
f 104/0/104 130/0/130 129/0/129
f 92/0/92 131/0/131 98/0/98
f 98/0/98 131/0/131 130/0/130
f 86/0/86 131/0/131 92/0/92
f 131/0/131 86/0/86 132/0/132
f 80/0/80 133/0/133 86/0/86
f 86/0/86 133/0/133 132/0/132
f 74/0/74 133/0/133 80/0/80
f 133/0/133 74/0/74 134/0/134
f 68/0/68 135/0/135 74/0/74
f 74/0/74 135/0/135 134/0/134
f 68/0/68 62/0/62 136/0/136
f 68/0/68 136/0/136 135/0/135
f 56/0/56 137/0/137 62/0/62
f 62/0/62 137/0/137 136/0/136
f 50/0/50 137/0/137 56/0/56
f 137/0/137 50/0/50 138/0/138
f 44/0/44 139/0/139 50/0/50
f 50/0/50 139/0/139 138/0/138
f 160/0/160 37/0/37 140/0/140
f 160/0/160 140/0/140 159/0/159
f 108/0/108 165/0/165 166/0/166
f 165/0/165 108/0/108 142/0/142
f 102/0/102 143/0/143 108/0/108
f 108/0/108 143/0/143 142/0/142
f 96/0/96 143/0/143 102/0/102
f 143/0/143 96/0/96 144/0/144
f 90/0/90 144/0/144 96/0/96
f 144/0/144 90/0/90 145/0/145
f 90/0/90 84/0/84 146/0/146
f 90/0/90 146/0/146 145/0/145
f 78/0/78 147/0/147 84/0/84
f 84/0/84 147/0/147 146/0/146
f 78/0/78 72/0/72 148/0/148
f 78/0/78 148/0/148 147/0/147
f 66/0/66 149/0/149 72/0/72
f 72/0/72 149/0/149 148/0/148
f 66/0/66 60/0/60 150/0/150
f 66/0/66 150/0/150 149/0/149
f 54/0/54 151/0/151 60/0/60
f 60/0/60 151/0/151 150/0/150
f 54/0/54 48/0/48 152/0/152
f 54/0/54 152/0/152 151/0/151
f 42/0/42 153/0/153 48/0/48
f 48/0/48 153/0/153 152/0/152
f 157/0/157 35/0/35 154/0/154
f 157/0/157 154/0/154 156/0/156
f 156/0/156 41/0/41 153/0/153
f 41/0/41 156/0/156 155/0/155
f 42/0/42 157/0/157 153/0/153
f 157/0/157 156/0/156 153/0/153
f 158/0/158 42/0/42 43/0/43
f 42/0/42 158/0/158 157/0/157
f 159/0/159 43/0/43 139/0/139
f 43/0/43 159/0/159 158/0/158
f 44/0/44 160/0/160 139/0/139
f 160/0/160 159/0/159 139/0/139
f 161/0/161 44/0/44 45/0/45
f 44/0/44 161/0/161 160/0/160
f 162/0/162 45/0/45 125/0/125
f 45/0/45 162/0/162 161/0/161
f 46/0/46 163/0/163 125/0/125
f 163/0/163 162/0/162 125/0/125
f 165/0/165 32/0/32 141/0/141
f 32/0/32 165/0/165 164/0/164
f 166/0/166 141/0/141 36/0/36
f 141/0/141 166/0/166 165/0/165
f 167/0/167 36/0/36 34/0/34
f 36/0/36 167/0/167 166/0/166
f 168/0/168 34/0/34 127/0/127
f 34/0/34 168/0/168 167/0/167
f 169/0/169 127/0/127 38/0/38
f 127/0/127 169/0/169 168/0/168
f 170/0/170 38/0/38 40/0/40
f 38/0/38 170/0/170 169/0/169
f 171/0/171 40/0/40 113/0/113
f 40/0/40 171/0/171 170/0/170
f 172/0/172 113/0/113 30/0/30
f 113/0/113 172/0/172 171/0/171
f 22/0/22 25/0/25 23/0/23
f 25/0/25 22/0/22 24/0/24
f 19/0/19 16/0/16 17/0/17
f 19/0/19 17/0/17 18/0/18
f 20/0/20 26/0/26 21/0/21
f 26/0/26 20/0/20 27/0/27
f 27/0/27 174/0/174 26/0/26
f 173/0/173 26/0/26 174/0/174
f 174/2/174 29/4/29 173/1/173
f 29/4/29 174/2/174 28/3/28
